# xmcd CD database file
#
# Track frame offsets:
#	150
#	19890
#	44740
#
# Disc length: 857 seconds
#
# Revision: 0
# Processed by: cddbd v1.5.1PL0 Copyright (c) Steve Scherf et al.
# Submitted via: CDex 1.51
#
DISCID=23035703
DTITLE=まんたんシスターズ - すてきな地方 LUCKY ,HAPPY,玉の輿
DYEAR=1995
DGENRE=J-POP
TTITLE0=すてきな地方 LUCKY ,HAPPY,玉の輿
TTITLE1=Hold on Me
TTITLE2=すてきな地方 LUCKY ,HAPPY,玉の輿　（オリジナル・カラオケ）
EXTD=YEAR: 1995
EXTT0=
EXTT1=
EXTT2=
PLAYORDER=
